<svg width="176" height="85" viewBox="0 0 176 85" fill="none" xmlns="http://www.w3.org/2000/svg">
<path d="M37.2344 3.39062C37.6719 4.57812 38.2031 6.35937 38.8281 8.73438C39.4531 11.0781 40.1406 13.7969 40.8906 16.8906C41.6406 19.9844 42.4219 23.3438 43.2344 26.9688C44.0781 30.5938 44.9062 34.2812 45.7188 38.0312C46.5625 41.7812 47.375 45.4844 48.1562 49.1406C48.9688 52.7969 49.7188 56.1875 50.4062 59.3125C51.0938 62.4375 51.7031 65.2188 52.2344 67.6562C52.7969 70.0625 53.2344 71.9062 53.5469 73.1875C54.2344 71.4375 55.0312 69.2812 55.9375 66.7188C56.875 64.1562 57.875 61.3594 58.9375 58.3281C60.0312 55.2656 61.1562 52.0312 62.3125 48.625C63.5 45.1875 64.6875 41.7344 65.875 38.2656C67.0938 34.7656 68.3125 31.3125 69.5312 27.9062C70.75 24.5 71.9219 21.2812 73.0469 18.25C74.1719 15.1875 75.2344 12.3906 76.2344 9.85938C77.2656 7.29687 78.1875 5.14062 79 3.39062L82.8438 3.85938C82.2812 5.82812 81.7188 8.125 81.1562 10.75C80.5938 13.3437 80.0469 16.1719 79.5156 19.2344C79.0156 22.2656 78.5312 25.4688 78.0625 28.8438C77.5938 32.1875 77.1875 35.5625 76.8438 38.9688C76.5 42.375 76.2188 45.75 76 49.0938C75.8125 52.4375 75.7188 55.625 75.7188 58.6562C75.7188 64.5625 76.1406 69.0469 76.9844 72.1094C77.8281 75.1719 79.1406 76.7031 80.9219 76.7031C81.7031 76.7031 82.4531 76.3906 83.1719 75.7656C83.9219 75.1406 84.7031 74.2031 85.5156 72.9531C86.3594 71.7031 87.25 70.1562 88.1875 68.3125C89.1562 66.4375 90.25 64.2812 91.4688 61.8438L91.9375 60.8594L93.8594 62.3125L93.3906 63.2969C91.8281 66.4219 90.4219 69.1562 89.1719 71.5C87.9531 73.8125 86.7656 75.75 85.6094 77.3125C84.4844 78.875 83.3438 80.0469 82.1875 80.8281C81.0625 81.6094 79.8281 82 78.4844 82C76.6094 82 75.0469 81.5469 73.7969 80.6406C72.5469 79.7031 71.5312 78.3906 70.75 76.7031C70 74.9844 69.4531 72.9062 69.1094 70.4688C68.7969 68.0312 68.6406 65.2812 68.6406 62.2188C68.6406 58.875 68.8125 55.375 69.1562 51.7188C69.5 48.0312 69.9062 44.4531 70.375 40.9844C70.875 37.5156 71.375 34.3125 71.875 31.375C72.4062 28.4062 72.8594 25.9531 73.2344 24.0156L52.0938 84.3906L48.25 83.4531C48.25 82.7969 48.0469 81.4062 47.6406 79.2812C47.2344 77.125 46.7031 74.5312 46.0469 71.5C45.3906 68.4375 44.6406 65.0781 43.7969 61.4219C42.9844 57.7344 42.1406 54.0312 41.2656 50.3125C39.2344 41.5625 36.9219 31.8438 34.3281 21.1562C34.4219 23.4062 34.5312 25.6719 34.6562 27.9531C34.75 29.9219 34.8281 32.0312 34.8906 34.2812C34.9844 36.5 35.0312 38.5781 35.0312 40.5156C35.0312 46.1719 34.7031 51.1875 34.0469 55.5625C33.4219 59.9375 32.5625 63.75 31.4688 67C30.375 70.2188 29.0938 72.9375 27.625 75.1562C26.1562 77.375 24.5938 79.1562 22.9375 80.5C21.2812 81.8438 19.5781 82.8125 17.8281 83.4062C16.1094 84 14.4219 84.2969 12.7656 84.2969C11.1094 84.2969 9.5625 84.0156 8.125 83.4531C6.65625 82.9219 5.39062 82.1719 4.32812 81.2031C3.23438 80.2031 2.375 79.0469 1.75 77.7344C1.09375 76.3906 0.765625 74.9375 0.765625 73.375C0.765625 71.5312 1.07812 69.7656 1.70312 68.0781C2.29688 66.3906 3.14062 64.8125 4.23438 63.3438C5.29688 61.8438 6.5625 60.4531 8.03125 59.1719C9.5 57.8906 11.0781 56.7031 12.7656 55.6094L14.1719 57.0625C12.9844 57.9062 11.8906 58.8594 10.8906 59.9219C9.89062 60.9531 9.03125 62.0781 8.3125 63.2969C7.59375 64.4844 7.03125 65.7344 6.625 67.0469C6.21875 68.3281 6.01562 69.625 6.01562 70.9375C6.01562 72.1562 6.21875 73.2969 6.625 74.3594C7 75.4219 7.5625 76.3594 8.3125 77.1719C9.03125 77.9844 9.90625 78.625 10.9375 79.0938C11.9375 79.5625 13.0781 79.7969 14.3594 79.7969C15.6719 79.7969 17.0312 79.5312 18.4375 79C19.8438 78.4375 21.2031 77.5312 22.5156 76.2812C23.8594 75 25.125 73.3281 26.3125 71.2656C27.5312 69.1719 28.5781 66.6094 29.4531 63.5781C30.3594 60.5156 31.0781 56.9375 31.6094 52.8438C32.1406 48.75 32.4062 44.0312 32.4062 38.6875C32.4062 37.1562 32.3594 35.3594 32.2656 33.2969C32.2031 31.2344 32.0938 29.0781 31.9375 26.8281C31.8125 24.5781 31.6562 22.3281 31.4688 20.0781C31.2812 17.7969 31.0781 15.6875 30.8594 13.75C30.6719 11.7812 30.4531 10.0625 30.2031 8.59375C29.9844 7.09375 29.7656 6 29.5469 5.3125L37.2344 3.39062ZM160.797 84.8594V48.5781C155.234 48.3281 149.875 48.0312 144.719 47.6875C139.562 47.3125 134.828 46.9688 130.516 46.6562V57.1562C130.516 61.375 130.109 65.0469 129.297 68.1719C128.516 71.2656 127.266 73.8438 125.547 75.9062C123.828 77.9688 121.641 79.5 118.984 80.5C116.328 81.5 113.141 82 109.422 82C106.797 82 104.344 81.6094 102.062 80.8281C99.7812 80.0156 97.7969 78.875 96.1094 77.4062C94.4219 75.9375 93.0938 74.1719 92.125 72.1094C91.1875 70.0469 90.7188 67.75 90.7188 65.2188C90.7188 62.4688 91.3438 59.7969 92.5938 57.2031C93.8438 54.5781 95.6719 52.2656 98.0781 50.2656C100.516 48.2656 103.516 46.6562 107.078 45.4375C110.672 44.2188 114.812 43.6094 119.5 43.6094H123.344V35.7344C123.344 33.2344 123.391 30.8438 123.484 28.5625C123.609 26.25 123.906 24.0156 124.375 21.8594C124.844 19.7031 125.562 17.6094 126.531 15.5781C127.5 13.5469 128.828 11.5313 130.516 9.53125C128.797 10.8125 126.922 11.6719 124.891 12.1094C122.891 12.5469 120.844 12.7656 118.75 12.7656C117.312 12.7656 115.859 12.7031 114.391 12.5781C112.953 12.4219 111.531 12.2656 110.125 12.1094C108.719 11.9531 107.344 11.8125 106 11.6875C104.688 11.5313 103.422 11.4531 102.203 11.4531C100.891 11.4531 99.75 11.625 98.7812 11.9688C97.8125 12.2813 97.0156 12.7344 96.3906 13.3281C95.7656 13.8906 95.2969 14.5469 94.9844 15.2969C94.6719 16.0469 94.5156 16.8438 94.5156 17.6875C94.5156 18.5312 94.7188 19.3594 95.125 20.1719C95.5312 20.9531 96.125 21.6719 96.9062 22.3281C97.6875 22.9531 98.6406 23.4531 99.7656 23.8281C100.922 24.2031 102.219 24.3906 103.656 24.3906C104.969 24.3906 106.156 24.2656 107.219 24.0156C108.281 23.7656 109.188 23.4844 109.938 23.1719C110.812 22.8281 111.594 22.4062 112.281 21.9062L113.266 23.9219C112.422 24.4844 111.484 24.9688 110.453 25.375C109.578 25.7188 108.547 26.0469 107.359 26.3594C106.203 26.6406 104.969 26.7812 103.656 26.7812C101.844 26.7812 100.203 26.5312 98.7344 26.0312C97.2656 25.5 96 24.7969 94.9375 23.9219C93.9062 23.0156 93.0938 21.9531 92.5 20.7344C91.9375 19.4844 91.6562 18.1406 91.6562 16.7031C91.6562 15.0156 91.9688 13.5312 92.5938 12.25C93.2188 10.9375 94.0625 9.82812 95.125 8.92188C96.2188 8.01563 97.4844 7.32812 98.9219 6.85938C100.391 6.39062 101.969 6.15625 103.656 6.15625C105.375 6.15625 107.078 6.26562 108.766 6.48438C110.453 6.70313 112.125 6.95312 113.781 7.23438C115.469 7.48437 117.125 7.71875 118.75 7.9375C120.406 8.15625 122.031 8.26562 123.625 8.26562C125.219 8.26562 126.781 8.125 128.312 7.84375C129.844 7.53125 131.391 6.96875 132.953 6.15625L134.875 7.60938C134.156 8.54688 133.531 9.59375 133 10.75C132.469 11.9063 132.016 13.3125 131.641 14.9688C131.266 16.625 130.984 18.6094 130.797 20.9219C130.609 23.2031 130.516 25.9688 130.516 29.2188V43.6094H160.797V30.1562C160.797 27.125 160.875 24.4375 161.031 22.0938C161.188 19.7188 161.406 17.6094 161.688 15.7656C162 13.8906 162.375 12.2344 162.812 10.7969C163.25 9.32813 163.75 8 164.312 6.8125C164.906 5.625 165.547 4.51562 166.234 3.48438C166.922 2.45312 167.656 1.42188 168.438 0.390625L170.359 1.84375C169.891 2.8125 169.469 3.875 169.094 5.03125C168.75 6.15625 168.453 7.625 168.203 9.4375C167.984 11.2188 167.812 13.4688 167.688 16.1875C167.562 18.875 167.5 22.25 167.5 26.3125V43.6094H175.656L174.203 48.8594C173.109 48.8594 171.984 48.8594 170.828 48.8594C169.703 48.8594 168.594 48.8281 167.5 48.7656V83.9219L160.797 84.8594ZM110.359 79.6094C112.516 79.6094 114.406 79.3125 116.031 78.7188C117.656 78.125 119 77.1406 120.062 75.7656C121.156 74.3906 121.969 72.5781 122.5 70.3281C123.062 68.0781 123.344 65.2812 123.344 61.9375V46.1875C122.375 46.125 121.422 46.0781 120.484 46.0469C119.578 46.0156 118.766 46 118.047 46C115.328 46 112.922 46.2969 110.828 46.8906C108.734 47.4531 106.906 48.2188 105.344 49.1875C103.781 50.1562 102.453 51.2812 101.359 52.5625C100.297 53.8438 99.4375 55.2031 98.7812 56.6406C98.125 58.0469 97.6562 59.5 97.375 61C97.0938 62.4688 96.9531 63.875 96.9531 65.2188C96.9531 67.8438 97.3594 70.0781 98.1719 71.9219C98.9844 73.7344 100.031 75.2188 101.312 76.375C102.594 77.5 104.031 78.3281 105.625 78.8594C107.219 79.3594 108.797 79.6094 110.359 79.6094Z" fill="white"/>
</svg>
